# xmcd CD database file
#
# Track frame offsets:
#	150
#	16288
#	33324
#	48249
#	66698
#	86197
#	102707
#	115589
#	127524
#	141368
#	159190
#	174760
#	190127
#	208279
#	224985
#	242960
#	256342
#	275512
#	291641
#	310003
#
# Disc length: 4378 seconds
#
# Revision: 2
# Processed by: cddbd v1.5.2PL0 Copyright (c) Steve Scherf et al.
# Submitted via: CDex 1.51
#
DISCID=34111814
DTITLE=Various Artist - ZM-PCP-16
DYEAR=1900
DGENRE=Blues
TTITLE0=One Direction - Best Song Ever
TTITLE1=Lawson Ft B.O.B - Brokenhearted
TTITLE2=Union J - Carry You
TTITLE3=Selena Gomez - Come And Get It
TTITLE4=Taylor Swift Ft Ed Sheeran - Everything Has Changed
TTITLE5=Dizzee Rascal Ft Robbie Williams - Going Crazy
TTITLE6=Icona Pop Ft Charll XCX - I Love It
TTITLE7=Leah McFall - I Will Survive
TTITLE8=Gabs - Lighters (the one)
TTITLE9=John Newman - Love Me Again
TTITLE10=Charlie Brown - On My Way
TTITLE11=Olly Murs - Right Place Right Time
TTITLE12=Stooshe - Slip
TTITLE13=Selena Gomez - Slow Down
TTITLE14=Jason Derulo - The Other Side
TTITLE15=Bruno Mars - Treasure
TTITLE16=Avicii Ft Aloe Blacc - Wake Me Up
TTITLE17=Wanted The - Walks like Rihanna
TTITLE18=Jessie J Ft Dizzee Rascal - Wild
TTITLE19=Bruno Mars - Young Girls
EXTD=
EXTT0=
EXTT1=
EXTT2=
EXTT3=
EXTT4=
EXTT5=
EXTT6=
EXTT7=
EXTT8=
EXTT9=
EXTT10=
EXTT11=
EXTT12=
EXTT13=
EXTT14=
EXTT15=
EXTT16=
EXTT17=
EXTT18=
EXTT19=
PLAYORDER=
